<?xml version="1.0" encoding="UTF-8"?>
<svg width="476px" height="346px" viewBox="0 0 476 346" version="1.1" xmlns="http://www.w3.org/2000/svg" xmlns:xlink="http://www.w3.org/1999/xlink">
    <!-- Generator: Sketch 58 (84663) - https://sketch.com -->
    <title>Astroid3</title>
    <desc>Created with Sketch.</desc>
    <defs>
        <linearGradient x1="-23.1675375%" y1="-0.485379474%" x2="50%" y2="76.4181976%" id="linearGradient-1">
            <stop stop-color="#AB15DC" offset="0%"></stop>
            <stop stop-color="#7209B7" offset="100%"></stop>
        </linearGradient>
        <path d="M58.4080649,2.03214406 C37.7663624,8.30125099 11.1783411,16.1418324 30.8475036,75.9467337 C50.5166662,135.751635 55.6595387,136.639717 82.6756017,130.876766 C109.691665,125.113816 129.360406,95.9960766 119.526036,49.0141103 C109.691665,2.03214406 79.0497674,-4.23696288 58.4080649,2.03214406 Z" id="path-2"></path>
        <path d="M42.9947501,1.42108547e-14 C22.437318,1.42108547e-14 -10.2164533,18.9688997 3.53466901,50.992886 C17.2857914,83.0168724 35.3980218,83.0168724 59.1541136,83.0168724 C82.9102054,83.0168724 87.8142678,71.068327 87.8142678,50.992886 C87.8142678,30.917445 63.5521822,1.42108547e-14 42.9947501,1.42108547e-14 Z" id="path-4"></path>
        <path d="M30.1538239,0.519932439 C13.5569346,-0.246413582 0,11.4699239 0,28.957887 C0,46.4458502 17.0870946,64.5324226 43.2856034,64.5324226 C69.4841122,64.5324226 85.074065,55.8316803 77.2790886,32.5261775 C69.4841122,9.22067473 46.7507132,1.28627846 30.1538239,0.519932439 Z" id="path-6"></path>
        <path d="M12.4536797,10.322296 C-0.134901574,32.4191736 -13.4195428,49.1869309 36.5992691,68.9617088 C86.618081,88.7364868 139.046467,145.01519 153.930306,175.006848 C168.814144,204.998506 207.327407,201.924383 218.527479,182.707226 C229.727551,163.49007 239.580168,96.2911443 153.930306,49.6413226 C68.2804442,2.99150093 25.0422609,-11.7745817 12.4536797,10.322296 Z" id="path-8"></path>
    </defs>
    <g id="Page-1" stroke="none" stroke-width="1" fill="none" fill-rule="evenodd">
        <g id="Astroid3" transform="translate(0.044177, 0.210481)">
            <path d="M5.91998469,183.146371 C-18.1811762,71.1960617 30.0211456,0 174.19143,0 C318.361713,0 475.237417,82.9283526 475.237417,183.146371 C475.237417,283.364389 392.508688,345.443653 269.956124,345.443653 C147.403559,345.443653 30.0211456,295.09668 5.91998469,183.146371 Z" id="Path-4" fill="url(#linearGradient-1)"></path>
            <g id="Group-20" transform="translate(22.648053, 98.504189)">
                <mask id="mask-3" fill="white">
                    <use xlink:href="#path-2"></use>
                </mask>
                <use id="Path-19" stroke="#560BAD" stroke-width="20" fill="#560BAD" xlink:href="#path-2"></use>
                <path d="M41.8472098,0 C77.4430569,31.0688553 91.5383625,58.8942936 84.1331269,83.476315 C73.0252733,120.349347 75.1895303,153.237358 53.6769994,153.237358 C32.1644684,153.237358 0,47.6147755 0,42.5848725 C0,39.2316038 13.9490699,25.0366463 41.8472098,0 Z" id="Path-43" fill="#3A0CA3" mask="url(#mask-3)"></path>
            </g>
            <g id="Group-19" transform="translate(223.902049, 200.748661)">
                <mask id="mask-5" fill="white">
                    <use xlink:href="#path-4"></use>
                </mask>
                <use id="Path-21" stroke="#560BAD" stroke-width="20" fill="#560BAD" xlink:href="#path-4"></use>
                <path d="M6.95567212,7.31469655 C13.7166599,7.31469655 48.9166926,5.4409326 44.0347187,41.5084362 C39.1527448,77.5759398 37.355235,100.216534 25.7265931,100.216534 C14.0979512,100.216534 0.698659109,84.5474361 -5.31669396,50.992886 C-11.332047,17.4383359 0.194684308,7.31469655 6.95567212,7.31469655 Z" id="Path-45" fill="#3A0CA3" mask="url(#mask-5)"></path>
            </g>
            <g id="Group-18" transform="translate(114.592475, 251.257097)">
                <mask id="mask-7" fill="white">
                    <use xlink:href="#path-6"></use>
                </mask>
                <use id="Path-20" stroke="#560BAD" stroke-width="20" fill="#560BAD" xlink:href="#path-6"></use>
                <path d="M4.85932209,3.24887929 C8.18732827,15.5696664 19.7827933,25.322852 39.6457172,32.5084362 C69.440103,43.2868125 80.5848031,55.4429296 89.281165,41.3756193 C97.9775269,27.3083089 98.9854877,-9 64.5696558,-9 C41.6257679,-9 21.7223233,-4.91704024 4.85932209,3.24887929 Z" id="Path-46" fill="#3A0CA3" mask="url(#mask-7)"></path>
            </g>
            <g id="Group-17" transform="translate(211.703539, 37.258591)">
                <mask id="mask-9" fill="white">
                    <use xlink:href="#path-8"></use>
                </mask>
                <use id="Path-22" stroke="#560BAD" stroke-width="20" fill="#560BAD" xlink:href="#path-8"></use>
                <path d="M0.866462977,13.5646881 C0.866462977,13.5646881 110.030769,34.1110647 149.474477,98.8005671 C188.918186,163.49007 199.410014,199.194701 225.791763,194.407515 C252.173513,189.620329 261.365995,97.6517308 236.305967,61.2455977 C211.245938,24.8394646 143.934312,-27 63.0573414,-27 C-17.8196296,-27 0.866462977,13.5646881 0.866462977,13.5646881 Z" id="Path-44" fill="#3A0CA3" mask="url(#mask-9)"></path>
            </g>
        </g>
    </g>
</svg>