<?xml version="1.0" encoding="UTF-8"?>
<svg width="351px" height="455px" viewBox="0 0 351 455" version="1.1" xmlns="http://www.w3.org/2000/svg" xmlns:xlink="http://www.w3.org/1999/xlink">
    <!-- Generator: Sketch 58 (84663) - https://sketch.com -->
    <title>Astroid5</title>
    <desc>Created with Sketch.</desc>
    <defs>
        <linearGradient x1="20.2967822%" y1="-30.317867%" x2="56.2561761%" y2="40.7973389%" id="linearGradient-1">
            <stop stop-color="#AB15DC" offset="0%"></stop>
            <stop stop-color="#7209B7" offset="100%"></stop>
        </linearGradient>
        <path d="M58.9432741,0 C14.8026702,0 -8.09910676,33.2413178 2.61251043,65.227726 C13.3241276,97.2141341 77.48405,166.53168 77.48405,195.189586 C77.48405,223.847492 62.7635767,281.861935 103.083878,281.861935 C143.404179,281.861935 173.908902,195.562871 158.656541,149.592487 C143.404179,103.622102 103.083878,0 58.9432741,0 Z" id="path-2"></path>
        <path d="M24.827861,2.29759773 C8.84968714,7.10170953 -6.11762664,32.0323217 4.1975359,53.8073019 C14.5126984,75.5822822 27.5670257,83.4215466 47.5523131,79.5019144 C67.5376004,75.5822822 72.8692676,65.6253972 70.203434,33.9614975 C67.5376004,2.29759773 40.8060349,-2.50651408 24.827861,2.29759773 Z" id="path-4"></path>
        <path d="M99.6474817,0 C81.0100557,0 57.7718957,6.38697936 57.7718957,46.6779783 C57.7718957,86.9689773 16.0904166,143.954193 3.78036789,157.138513 C-8.5296808,170.322832 15.8963098,210.041628 57.7718957,170.322832 C99.6474817,130.604037 123.394189,73.4448433 123.394189,46.6779783 C123.394189,19.9111133 118.284908,0 99.6474817,0 Z" id="path-6"></path>
    </defs>
    <g id="Page-1" stroke="none" stroke-width="1" fill="none" fill-rule="evenodd">
        <g id="Astroid5" transform="translate(0.740946, 0.389641)">
            <path d="M22.8105094,58.0942315 C70.4736753,-10.4004602 140.482468,-10.4004602 218.282889,17.520105 C296.083309,45.4406702 363.002732,43.6698232 347.338144,178.871295 C331.673555,314.072767 316.404391,453.622183 166.922009,453.622183 C17.4396272,453.622183 133.399357,360.111354 70.4736753,269.491325 C7.54799328,178.871295 -24.8526564,126.588923 22.8105094,58.0942315 Z" id="Path-5" fill="url(#linearGradient-1)"></path>
            <g id="Group-16" transform="translate(38.259054, 42.610359)">
                <mask id="mask-3" fill="white">
                    <use xlink:href="#path-2"></use>
                </mask>
                <use id="Path-23" stroke="#560BAD" stroke-width="20" fill="#560BAD" xlink:href="#path-2"></use>
                <path d="M67.9112148,5.68434189e-14 C32.7134389,25.1402113 26.1500339,51.2436411 48.2209999,78.3102895 C81.3274487,118.910262 114.11224,118.910262 114.11224,170.318394 C114.11224,221.726526 75.8623576,233.915442 86.6395393,281.861935 C93.8243271,313.826264 123.831192,300.492335 176.660135,241.860148 C198.129915,149.959682 198.129915,88.5131729 176.660135,57.5206211 C155.190356,26.5280694 118.940715,7.354529 67.9112148,5.68434189e-14 Z" id="Path-42" fill="#480CA8" mask="url(#mask-3)"></path>
            </g>
            <g id="Group-15" transform="translate(242.455499, 67.520621)">
                <mask id="mask-5" fill="white">
                    <use xlink:href="#path-4"></use>
                </mask>
                <use id="Path-24" stroke="#560BAD" stroke-width="20" fill="#560BAD" xlink:href="#path-4"></use>
                <path d="M26.3790184,89.5471437 C21.1902133,78.603599 38.3630578,38.7062194 65.3941565,33.228423 C92.4252552,27.7506267 92.8530264,60.1298309 84.3952593,73.303048 C75.9374921,86.4762651 31.5678235,100.490688 26.3790184,89.5471437 Z" id="Path-41" fill="#480CA8" mask="url(#mask-5)"></path>
            </g>
            <g id="Group-14" transform="translate(184.455466, 224.610359)">
                <mask id="mask-7" fill="white">
                    <use xlink:href="#path-6"></use>
                </mask>
                <use id="Path-25" stroke="#560BAD" stroke-width="20" fill="#560BAD" xlink:href="#path-6"></use>
                <path d="M0.589310913,173.046315 C13.5992346,178.351777 86.3308787,111.665891 93.8195096,26.6794237 C98.8119302,-29.9782212 83.2735638,-36.3147852 47.2044103,7.66973173 C7.45439488,114.383813 -8.08397157,169.509341 0.589310913,173.046315 Z" id="Path-40" fill="#480CA8" mask="url(#mask-7)"></path>
            </g>
        </g>
    </g>
</svg>