<?xml version="1.0" encoding="UTF-8"?>
<svg width="311px" height="266px" viewBox="0 0 311 266" version="1.1" xmlns="http://www.w3.org/2000/svg" xmlns:xlink="http://www.w3.org/1999/xlink">
    <!-- Generator: Sketch 58 (84663) - https://sketch.com -->
    <title>Astroid2</title>
    <desc>Created with Sketch.</desc>
    <defs>
        <linearGradient x1="-5.80765395%" y1="-27.5221552%" x2="36.4978424%" y2="50%" id="linearGradient-1">
            <stop stop-color="#AB15DC" offset="0%"></stop>
            <stop stop-color="#7209B7" offset="100%"></stop>
        </linearGradient>
        <path d="M42.2381657,7.29568193 C22.4559637,7.29568193 1.0658141e-13,9.9748546 1.0658141e-13,32.2339299 C1.0658141e-13,54.4930053 -0.23922681,89.8633983 30.120811,80.0510391 C60.4808488,70.2386799 67.7169894,57.172178 67.7169894,32.2339299 C67.7169894,7.29568193 62.0203678,7.29568193 42.2381657,7.29568193 Z" id="path-2"></path>
        <path d="M53.7329028,10.4053763 C30.2114366,7.95370078 28.6965579,17.3437474 18.4719788,60.3711684 C8.24739976,103.398589 0.734050912,118.93504 21.4199727,122.760177 C42.1058945,126.585313 60.1320772,109.665553 68.6932231,72.9218423 C77.2543689,36.1781312 77.2543689,12.8570518 53.7329028,10.4053763 Z" id="path-4"></path>
        <path d="M52.9468952,6.20485094 C23.4214858,16.9385463 -5.66742515,41.5176371 0.949985454,71.3425092 C7.56739606,101.167381 48.5076071,79.1013931 65.3055554,71.3425092 C82.1035037,63.5836253 104.740765,50.1285146 127.802728,50.1285146 C150.86469,50.1285146 160.438079,11.5967283 133.856909,6.20485094 C107.275739,0.812973565 82.4723047,-4.52884438 52.9468952,6.20485094 Z" id="path-6"></path>
    </defs>
    <g id="Page-1" stroke="none" stroke-width="1" fill="none" fill-rule="evenodd">
        <g id="Astroid2" transform="translate(0.317647, 0.597954)">
            <path d="M4.98434261,236.784357 C16.3429357,267.372781 34.5030832,288.106404 120.268658,217.029629 C206.034233,145.952853 223.200211,160.144921 271.917397,146.330542 C320.634583,132.516163 320.634583,94.3373832 284.288948,63.8101347 C247.943313,33.2828862 87.7813001,-24.06209 43.757119,10.9858546 C-0.267062042,46.0337993 -6.37425045,206.195934 4.98434261,236.784357 Z" id="Path-2" fill="url(#linearGradient-1)"></path>
            <g id="Group-27" transform="translate(23.992735, 155.716042)">
                <mask id="mask-3" fill="white">
                    <use xlink:href="#path-2"></use>
                </mask>
                <use id="Path-12" fill="#560BAD" xlink:href="#path-2"></use>
                <path d="M-2.13162821e-14,7.29568193 C2.15937849,28.4840641 11.9571604,40.890292 29.3933458,44.5143656 C55.5476238,49.950476 70.586196,47.2995283 78.4347902,34.1026055 C86.2833844,20.9056828 65.9713115,2.48689958e-14 43.2220759,2.48689958e-14 C28.0559189,2.48689958e-14 14.724165,2.43189398 3.22681413,7.29568193 L-2.13162821e-14,7.29568193 Z" id="Path-51" fill="#3A0CA3" mask="url(#mask-3)"></path>
            </g>
            <g id="Group-26" transform="translate(49.603829, 25.131405)">
                <mask id="mask-5" fill="white">
                    <use xlink:href="#path-4"></use>
                </mask>
                <use id="Path-13" fill="#560BAD" xlink:href="#path-4"></use>
                <path d="M37.0523321,7.10542736e-15 C51.8880615,28.5470729 56.2729783,50.7697121 50.2070825,66.6679176 C41.1082388,90.5152258 33.9758005,115.018988 8.24739976,119.154437 C-8.90486739,121.911403 0.696776719,82.1932574 37.0523321,7.10542736e-15 Z" id="Path-52" fill="#3A0CA3" mask="url(#mask-5)"></path>
            </g>
            <g id="Group-25" transform="translate(122.577770, 69.219805)">
                <mask id="mask-7" fill="white">
                    <use xlink:href="#path-6"></use>
                </mask>
                <use id="Path-14" fill="#560BAD" xlink:href="#path-6"></use>
                <path d="M5.69277848,93.7919187 C8.35993995,60.5514001 26.1808701,36.8139329 59.1555688,22.5795169 C108.617617,1.22789293 147.069825,23.6519161 154.819644,31.7002224 C162.569463,39.7485287 144.751778,63.9042586 101.141794,75.2002477 C72.068471,82.730907 40.2521326,88.9281307 5.69277848,93.7919187 Z" id="Path-53" fill="#3A0CA3" mask="url(#mask-7)"></path>
            </g>
        </g>
    </g>
</svg>