<?xml version="1.0" encoding="UTF-8"?>
<svg width="623px" height="500px" viewBox="0 0 623 500" version="1.1" xmlns="http://www.w3.org/2000/svg" xmlns:xlink="http://www.w3.org/1999/xlink">
    <!-- Generator: Sketch 58 (84663) - https://sketch.com -->
    <title>Astroid1</title>
    <desc>Created with Sketch.</desc>
    <defs>
        <linearGradient x1="63.7905274%" y1="25.7018162%" x2="53.1661269%" y2="74.1999805%" id="linearGradient-1">
            <stop stop-color="#AB15DC" offset="0%"></stop>
            <stop stop-color="#7209B7" offset="100%"></stop>
        </linearGradient>
        <path d="M56.8263126,115.230978 C94.2544607,106.51238 168.710183,76.6457524 245.365917,21.0315624 C322.02165,-34.5826276 325.798287,35.6311944 300.569917,53.9120719 C275.341547,72.1929495 209.253485,151.774202 169.70078,184.03569 C130.148075,216.297179 52.6913425,260.8717 14.8009258,213.42555 C-23.089491,165.9794 19.3981644,123.949575 56.8263126,115.230978 Z" id="path-2"></path>
        <path d="M145.270233,3.7583562 C135.480641,-3.07514107 112.075651,-3.07514107 73.0155093,28.6277264 C33.9553678,60.330594 -21.5399486,101.804499 10.5977429,134.780399 C42.7354343,167.756299 65.9184619,116.147105 105.594348,88.8170366 C145.270233,61.4869682 155.059825,10.5918535 145.270233,3.7583562 Z" id="path-4"></path>
        <path d="M86.951889,18.796182 C73.4444582,1.51930675 66.4491234,-3.9461165 30.2391731,4.50646749 C-5.97077717,12.9590515 -2.77526785,48.9270108 4.96930321,64.1843898 C12.7138743,79.4417688 34.0375578,80.8518767 63.5734811,72.5669196 C93.1094045,64.2819626 100.45932,36.0730573 86.951889,18.796182 Z" id="path-6"></path>
        <path d="M88.1270475,4.30068317 C44.9176938,-1.96783688 29.7480489,-10.2164299 12.971819,60.9691252 C-3.80441084,132.15468 -9.7612326,140.214199 29.1630561,140.214199 C68.0873448,140.214199 107.498018,113.519981 117.67673,77.0011684 C127.855442,40.4823557 131.336401,10.5692032 88.1270475,4.30068317 Z" id="path-8"></path>
    </defs>
    <g id="Page-1" stroke="none" stroke-width="1" fill="none" fill-rule="evenodd">
        <g id="Astroid1" transform="translate(0.788263, 0.568243)">
            <path d="M13.6957314,273.21475 C-48.7360172,135.368532 116.021347,106.518663 230.739124,88.9055439 C345.456901,71.2924253 309.499099,43.8077848 409.647197,20.3911281 C509.795294,-3.02552855 586.187048,-21.2991827 614.299535,54.5341468 C642.412023,130.367476 586.23381,203.292278 586.23381,303.174543 C586.23381,403.056808 586.23381,475.545873 459.869176,490.626806 C333.504542,505.707738 291.202296,509.132909 197.211737,433.182372 C103.221177,357.231835 76.1274799,411.060968 13.6957314,273.21475 Z" id="Path-3" fill="url(#linearGradient-1)"></path>
            <g id="Group-22" transform="translate(75.803978, 68.546086)">
                <mask id="mask-3" fill="white">
                    <use xlink:href="#path-2"></use>
                </mask>
                <use id="Path-15" stroke="#560BAD" stroke-width="20" fill="#560BAD" xlink:href="#path-2"></use>
                <path d="M0,234.131335 C0,234.131335 54.4824536,161.871112 118.407758,142.657546 C182.333063,123.44398 293.654337,16.3017106 314.522689,16.3017106 C335.39104,16.3017106 303.757426,107.7755 269.520698,125.216523 C235.283971,142.657546 114.320137,264.900746 57.1600683,258.263924 C0,251.627101 0,234.131335 0,234.131335 Z" id="Path-47" fill="#3A0CA3" mask="url(#mask-3)"></path>
            </g>
            <g id="Group-23" transform="translate(245.056434, 263.564233)">
                <mask id="mask-5" fill="white">
                    <use xlink:href="#path-4"></use>
                </mask>
                <use id="Path-16" stroke="#560BAD" stroke-width="20" fill="#560BAD" xlink:href="#path-4"></use>
                <path d="M-26,106.542114 C-5.94283837,126.292552 27.6863881,115.036353 74.8876795,72.7735184 C122.088971,30.5106837 147.777073,-3.41382241 151.951985,-29 C51.9958469,14.2143481 -2.65185188,45.0497615 -11.9911111,63.5062402 C-21.3303704,81.9627188 -26,96.3080102 -26,106.542114 Z" id="Path-50" fill="#3A0CA3" mask="url(#mask-5)"></path>
            </g>
            <g id="Group-24" transform="translate(399.821572, 378.763355)">
                <mask id="mask-7" fill="white">
                    <use xlink:href="#path-6"></use>
                </mask>
                <use id="Path-17" stroke="#560BAD" stroke-width="20" fill="#560BAD" xlink:href="#path-6"></use>
                <path d="M46.7340632,-16 C31.0810968,7.76961199 29.9744249,28.4731683 43.4140474,46.1106688 C63.5734811,72.5669196 121.20479,87.3843711 128.787946,66.74752 C133.843383,52.9896192 106.492089,25.4071125 46.7340632,-16 Z" id="Path-49" fill="#3A0CA3" mask="url(#mask-7)"></path>
            </g>
            <g id="Group-21" transform="translate(443.235619, 70.989433)">
                <mask id="mask-9" fill="white">
                    <use xlink:href="#path-8"></use>
                </mask>
                <use id="Path-18" stroke="#560BAD" stroke-width="20" fill="#560BAD" xlink:href="#path-8"></use>
                <path d="M3.32001582,54.1102608 C13.4024928,75.654061 34.8311829,81.040011 67.6060859,70.2681109 C116.76844,54.1102608 158.356193,17.654175 130.047091,-2.44334697 C101.737988,-22.5408689 27.039047,-34.8971699 15.1795314,-10.5194032 C7.27318767,5.73244134 3.32001582,27.2756627 3.32001582,54.1102608 Z" id="Path-48" fill="#3A0CA3" mask="url(#mask-9)"></path>
            </g>
        </g>
    </g>
</svg>