<?xml version="1.0" encoding="UTF-8"?>
<svg width="25px" height="21px" viewBox="0 0 25 21" version="1.1" xmlns="http://www.w3.org/2000/svg" xmlns:xlink="http://www.w3.org/1999/xlink">
    <!-- Generator: Sketch 58 (84663) - https://sketch.com -->
    <title>Group 2</title>
    <desc>Created with Sketch.</desc>
    <g id="Page-1" stroke="none" stroke-width="1" fill="none" fill-rule="evenodd">
        <g id="Group-2" transform="translate(0.000000, -1.000000)" fill="#C0C0C0">
            <g id="Group" transform="translate(0.000000, 7.000000)">
                <path d="M7.04124827,-0.758805523 C7.69787642,-0.753742922 8.22893376,-0.222685583 8.23399636,0.433942569 L8.35080563,15.5843089 C8.3557685,16.2280026 7.83797485,16.7538426 7.19428114,16.7588055 C7.18829051,16.7588517 7.18229961,16.7588517 7.17630898,16.7588055 C6.51968083,16.7537429 5.98862349,16.2226856 5.98356089,15.5660574 L5.86675163,0.415691121 C5.86178875,-0.228002588 6.3795824,-0.753842647 7.02327611,-0.758805523 C7.02926674,-0.758851711 7.03525764,-0.758851711 7.04124827,-0.758805523 Z" id="Rectangle" transform="translate(7.108779, 8.000000) rotate(-45.000000) translate(-7.108779, -8.000000) "></path>
                <path d="M17.9587517,-0.758805523 C18.6024454,-0.763768399 19.1282855,-0.245974751 19.1332484,0.397718958 C19.1332946,0.40370959 19.1332946,0.409700489 19.1332484,0.415691121 L19.0164391,15.5660574 C19.0113765,16.2226856 18.4803192,16.7537429 17.823691,16.7588055 C17.1799973,16.7637684 16.6541573,16.2459748 16.6491944,15.602281 C16.6491482,15.5962904 16.6491482,15.5902995 16.6491944,15.5843089 L16.7660036,0.433942569 C16.7710662,-0.222685583 17.3021236,-0.753742922 17.9587517,-0.758805523 Z" id="Rectangle" transform="translate(17.891221, 8.000000) rotate(45.000000) translate(-17.891221, -8.000000) "></path>
            </g>
            <g id="Group">
                <path d="M7.04124827,-0.758805523 C7.69787642,-0.753742922 8.22893376,-0.222685583 8.23399636,0.433942569 L8.35080563,15.5843089 C8.3557685,16.2280026 7.83797485,16.7538426 7.19428114,16.7588055 C7.18829051,16.7588517 7.18229961,16.7588517 7.17630898,16.7588055 C6.51968083,16.7537429 5.98862349,16.2226856 5.98356089,15.5660574 L5.86675163,0.415691121 C5.86178875,-0.228002588 6.3795824,-0.753842647 7.02327611,-0.758805523 C7.02926674,-0.758851711 7.03525764,-0.758851711 7.04124827,-0.758805523 Z" id="Rectangle" transform="translate(7.108779, 8.000000) rotate(-45.000000) translate(-7.108779, -8.000000) "></path>
                <path d="M17.9587517,-0.758805523 C18.6024454,-0.763768399 19.1282855,-0.245974751 19.1332484,0.397718958 C19.1332946,0.40370959 19.1332946,0.409700489 19.1332484,0.415691121 L19.0164391,15.5660574 C19.0113765,16.2226856 18.4803192,16.7537429 17.823691,16.7588055 C17.1799973,16.7637684 16.6541573,16.2459748 16.6491944,15.602281 C16.6491482,15.5962904 16.6491482,15.5902995 16.6491944,15.5843089 L16.7660036,0.433942569 C16.7710662,-0.222685583 17.3021236,-0.753742922 17.9587517,-0.758805523 Z" id="Rectangle" transform="translate(17.891221, 8.000000) rotate(45.000000) translate(-17.891221, -8.000000) "></path>
            </g>
        </g>
    </g>
</svg>