<svg xmlns="http://www.w3.org/2000/svg" xmlns:xlink="http://www.w3.org/1999/xlink" viewBox="0 0 606 606"><defs><style>.cls-1,.cls-12{fill:#fff;}.cls-2{fill:url(#linear-gradient);}.cls-11,.cls-3{fill:none;stroke:#3f37c9;}.cls-3{stroke-width:50px;}.cls-4{fill:#d8d8d8;}.cls-5{mask:url(#mask);}.cls-6{fill:#e40000;}.cls-7{fill:#ffe935;}.cls-8{fill:#25b20b;}.cls-9{mask:url(#mask-4);}.cls-10{fill:#4765eb;}.cls-11{stroke-width:5px;}.cls-12{stroke:#d8d8d8;stroke-width:5px;}</style><linearGradient id="linear-gradient" x1="-111.99" y1="698.83" x2="-111.44" y2="697.34" gradientTransform="matrix(606, 0, 0, -606, 68014.97, 423372.92)" gradientUnits="userSpaceOnUse"><stop offset="0" stop-color="#4895ef"/><stop offset="1" stop-color="#fff"/></linearGradient><mask id="mask" x="195" y="171" width="376" height="312" maskUnits="userSpaceOnUse"><g id="mask-3"><rect id="path-2" class="cls-1" x="195" y="171" width="376" height="312" rx="11"/></g></mask><mask id="mask-4" x="187" y="171" width="384" height="312" maskUnits="userSpaceOnUse"><g id="mask-3-5" data-name="mask-3"><rect id="path-2-4" data-name="path-2" class="cls-1" x="195" y="171" width="376" height="312" rx="11"/></g></mask></defs><g id="Layer_2" data-name="Layer 2"><g id="Layer_1-2" data-name="Layer 1"><g id="Page-1"><g id="responsive"><circle id="ambient_circle_2" data-name="ambient circle 2" class="cls-2" cx="303" cy="303" r="303"/><circle id="Oval" class="cls-3" cx="287" cy="349" r="36"/><g id="Window"><g id="Rectangle"><rect id="path-2-9" data-name="path-2" class="cls-4" x="195" y="171" width="376" height="312" rx="11"/></g><g class="cls-5"><circle id="Oval-2" data-name="Oval" class="cls-6" cx="210.5" cy="181.5" r="3.5"/></g><g class="cls-5"><circle id="Oval-3" data-name="Oval" class="cls-7" cx="219.5" cy="181.5" r="3.5"/></g><g class="cls-5"><circle id="Oval-4" data-name="Oval" class="cls-8" cx="229.5" cy="181.5" r="3.5"/></g><g class="cls-9"><rect id="Rectangle-2" data-name="Rectangle" class="cls-1" x="187" y="193" width="384" height="290"/></g><g class="cls-5"><rect id="Rectangle-3" data-name="Rectangle" class="cls-10" x="405" y="238" width="127" height="178"/></g><g class="cls-5"><rect id="Rectangle-4" data-name="Rectangle" class="cls-10" x="243" y="238" width="127" height="28"/></g><g class="cls-5"><rect id="Rectangle-5" data-name="Rectangle" class="cls-10" x="243" y="285" width="127" height="28"/></g><g class="cls-5"><rect id="Rectangle-6" data-name="Rectangle" class="cls-10" x="243" y="332" width="127" height="28"/></g></g><rect id="Rectangle-7" data-name="Rectangle" class="cls-11" x="303" y="515" width="39" height="39"/><circle id="Oval-5" data-name="Oval" class="cls-11" cx="194.5" cy="118.5" r="35.5"/><g id="Phone"><rect id="Rectangle-8" data-name="Rectangle" class="cls-12" x="124" y="327" width="91" height="170" rx="13" transform="translate(-163.45 116) rotate(-26)"/><rect id="Rectangle-9" data-name="Rectangle" class="cls-4" x="111.22" y="335.03" width="46" height="7" rx="2" transform="translate(-134.82 93.1) rotate(-26)"/><rect id="Rectangle-10" data-name="Rectangle" class="cls-10" x="144.58" y="418.48" width="63" height="14" transform="translate(-168.7 120.25) rotate(-26)"/><rect id="Rectangle-11" data-name="Rectangle" class="cls-10" x="152.47" y="434.66" width="63" height="14" transform="translate(-174.99 125.34) rotate(-26)"/><rect id="Rectangle-12" data-name="Rectangle" class="cls-10" x="160.36" y="450.84" width="63" height="14" transform="translate(-181.29 130.44) rotate(-26)"/><rect id="Rectangle-13" data-name="Rectangle" class="cls-10" x="122.88" y="349.49" width="63" height="63" transform="translate(-151.39 106.23) rotate(-26)"/></g></g></g></g></g></svg>