

<svg width="606px" height="606px" viewBox="0 0 606 606" version="1.1" xmlns="http://www.w3.org/2000/svg" xmlns:xlink="http://www.w3.org/1999/xlink" style="width: 15em; height: auto;">
            <defs>
                <linearGradient x1="19.9047291%" y1="-17.5334444%" x2="74.5924581%" y2="131.051877%" id="linearGradient-1">
                    <stop stop-color="#3A0CA3" offset="0%"></stop>
                    <stop stop-color="#FFFFFF" offset="100%"></stop>
                </linearGradient>
                <polygon id="path-2" points="200.602321 0 475 0 274.397679 256 0 256"></polygon>
                <filter x="0.0%" y="0.0%" width="100.0%" height="100.0%" filterUnits="objectBoundingBox" id="filter-4">
                    <feGaussianBlur stdDeviation="0" in="SourceGraphic"></feGaussianBlur>
                </filter>
            </defs>
            <g id="Page-1" stroke="none" stroke-width="1" fill="none" fill-rule="evenodd">
                <circle id="ambient_circle_2" fill="url(#linearGradient-1)" cx="303" cy="303" r="303"></circle>
                <circle id="ambient_circle" class="ambient-circle-2"  stroke="#4895EF" stroke-width="10" cx="450" cy="325" r="56"></circle>
                <circle id="ambient_circle" class="ambient-circle-1" stroke="#4895EF" stroke-width="5" cx="131" cy="479" r="28"></circle>
                <g id="paper_sketch" transform="translate(131.000000, 171.000000)" cx="400" cy="300">
                    <mask id="mask-3" fill="white">
                        <use xlink:href="#path-2"></use>
                    </mask> 
                    <use id="paper" fill="#FFFFFF" xlink:href="#path-2"></use>
                    <polygon id="paper" fill="#919191" mask="url(#mask-3)" points="311.547215 32 393 32 333.452785 108 252 108"></polygon>
                    <polygon id="paper" fill="#B9B9B9" mask="url(#mask-3)" points="200.547215 32 282 32 261.172087 54.869456 179.719302 54.869456"></polygon>
                    <polygon id="paper" fill="#B9B9B9" mask="url(#mask-3)" points="200.827913 59 282.280698 59 261.452785 81.869456 180 81.869456"></polygon>
                    <polygon id="paper" fill="#B9B9B9" mask="url(#mask-3)" points="158.827913 86 240.280698 86 219.452785 108.869456 138 108.869456"></polygon>
                    <polygon id="Triangle" fill="#B9B7B7" mask="url(#mask-3)" points="322 136 257.789474 223 78 223"></polygon>
                    <path d="M67,-1 C68.6568542,-1 70,0.343145751 70,2 L70,185 L57,202 L44,185 L44,2 C44,0.343145751 45.3431458,-1 47,-1 L67,-1 Z" id="Combined-Shape" fill="#E5E5E5" filter="url(#filter-4)" mask="url(#mask-3)" transform="translate(57.000000, 100.500000) rotate(-62.000000) translate(-57.000000, -100.500000) "></path>
                </g>
                <rect id="ambient_rectangle" class="ambient-rect" stroke="#4895EF" stroke-width="5" x="181" y="33" width="54" height="54"></rect>
                <g id="Pencil" transform="translate(221.000000, 223.500000) rotate(-39.000000) translate(-221.000000, -223.500000) translate(208.000000, 122.000000)">
                    <path d="M3,0 L23,0 C24.6568542,0 26,1.34314575 26,3 L26,19 C26,20.6568542 24.6568542,22 23,22 L3,22 C1.34314575,22 0,20.6568542 0,19 L0,3 C0,1.34314575 1.34314575,0 3,0 Z" id="Rectangle" class="bob-animate-slow" fill="#CA6680"></path>
                    <polygon id="Triangle" class="bob-animate-slow" fill="#000000" points="13 203 0 186 26 186"></polygon>
                    <polygon id="Rectangle" class="bob-animate-slow" fill="#EDC79B" points="0 15 26 15 26 186 0 186"></polygon>
                    <polygon id="Rectangle" class="bob-animate-slow" fill="#E6B175" points="0 15 16 15 16 186 0 186"></polygon>
                </g>
            </g>
          </svg>